<svg width="22" height="14" viewBox="0 0 22 14" fill="none" xmlns="http://www.w3.org/2000/svg">
<path d="M19.2793 1.37695V2.62249H14.1465V1.37695H19.2793ZM16.748 5.65597C18.0137 5.65597 18.6465 6.39927 18.757 7.61468H14.6588C14.7391 6.40932 15.5427 5.65597 16.748 5.65597ZM16.9088 11.5321C15.4322 11.5321 14.6588 10.6682 14.6588 9.20173H21.2681C21.2782 9.05106 21.2882 8.89035 21.2882 8.72963C21.2882 6.01758 19.7012 3.75753 16.8284 3.75753C14.036 3.75753 12.1376 5.85686 12.1376 8.6091C12.1376 11.4618 13.9355 13.4205 16.8284 13.4205C19.0181 13.4205 20.4344 12.4361 21.1175 10.3368H18.8976C18.6565 11.1203 17.6722 11.5321 16.9088 11.5321ZM3.49916 11.0299V7.54436H6.53265C7.75809 7.54436 8.53153 8.05664 8.53153 9.3524C8.53153 10.6281 7.60742 11.0299 6.47238 11.0299H3.49916ZM3.49916 5.63588V2.68276H6.11077C7.11523 2.68276 8.01925 2.96401 8.01925 4.12918C8.01925 5.20396 7.31613 5.63588 6.32171 5.63588H3.49916ZM0.716797 0.523158V13.1794H6.85407C9.1543 13.1794 11.3139 12.0745 11.3139 9.50307C11.3139 7.91602 10.5605 6.74079 9.00363 6.29883C10.1387 5.75642 10.7313 4.93276 10.7313 3.65709C10.7313 1.13588 8.85296 0.523158 6.68332 0.523158H0.716797Z" fill="#1E0E62"/>
</svg>
