<svg width="11" height="6" viewBox="0 0 11 6" fill="none" xmlns="http://www.w3.org/2000/svg">
<path d="M10.6975 0.733259C10.7645 0.800223 10.798 0.877232 10.798 0.964285C10.798 1.05134 10.7645 1.12835 10.6975 1.19531L6.01674 5.87612C5.94978 5.94308 5.87277 5.97656 5.78571 5.97656C5.69866 5.97656 5.62165 5.94308 5.55469 5.87612L0.873884 1.19531C0.80692 1.12835 0.773438 1.05134 0.773438 0.964285C0.773438 0.877232 0.80692 0.800223 0.873884 0.733259L1.37612 0.231026C1.44308 0.164062 1.52009 0.13058 1.60714 0.13058C1.6942 0.13058 1.77121 0.164062 1.83817 0.231026L5.78571 4.17857L9.73326 0.231026C9.80022 0.164062 9.87723 0.13058 9.96429 0.13058C10.0513 0.13058 10.1283 0.164062 10.1953 0.231026L10.6975 0.733259Z" fill="#1E0E62"/>
</svg>
