<svg width="16" height="16" viewBox="0 0 16 16" fill="none" xmlns="http://www.w3.org/2000/svg">
<path d="M10.5689 14.0388C9.77539 14.3703 8.91155 14.5611 7.99749 14.5611C6.40039 14.5611 4.94392 13.9886 3.79883 13.0544C3.79883 13.0544 3.88923 13.1147 3.9495 13.1649C5.21512 10.4127 9.12249 9.0466 9.12249 9.0466C9.13253 9.0466 9.15262 9.03655 9.16267 9.03655C10.0868 11.4473 10.4685 13.4562 10.5689 14.0388ZM8.71066 7.94168C8.6303 7.97182 8.5399 7.99191 8.4495 8.02204C8.4495 8.02204 4.89369 9.16713 3.0957 12.3714C2.05106 11.2062 1.4082 9.65932 1.4082 7.97182C1.4082 7.90151 1.4082 7.83119 1.41825 7.76088C1.52874 7.76088 4.7832 7.84124 8.17829 6.82673C8.36914 7.19838 8.54994 7.57003 8.71066 7.94168ZM7.63588 5.81222C4.47182 6.64593 1.71959 6.61579 1.54883 6.61579C1.98075 4.57673 3.34682 2.87918 5.18499 2.01535C5.27539 2.13588 6.49079 3.7832 7.63588 5.81222ZM14.5064 9.01646C14.2051 10.8546 13.1604 12.4417 11.6839 13.4361C11.6136 13.0444 11.262 11.1057 10.3982 8.72517C12.5276 8.39369 14.3658 8.97628 14.5064 9.01646ZM6.42048 1.57338C6.41044 1.57338 6.40039 1.58343 6.40039 1.58343C6.41044 1.57338 6.41044 1.57338 6.42048 1.57338ZM12.3468 3.02985C12.3267 3.05999 11.3926 4.48633 8.91155 5.41043C7.78655 3.34124 6.54102 1.70396 6.44057 1.57338C6.9428 1.45285 7.46512 1.38253 7.99749 1.38253C9.6649 1.38253 11.1917 2.0053 12.3468 3.02985ZM14.5868 7.90151C14.5064 7.89146 12.2665 7.39927 9.99637 7.69057C9.94615 7.58008 9.90597 7.45954 9.85575 7.34905C9.71512 7.02762 9.56445 6.70619 9.41378 6.39481C12.0153 5.33008 13.07 3.80329 13.0901 3.7832C14.0142 4.9082 14.5667 6.34459 14.5868 7.90151ZM15.7118 7.97182C15.7118 3.71289 12.2564 0.257533 7.99749 0.257533C3.73856 0.257533 0.283203 3.71289 0.283203 7.97182C0.283203 12.2307 3.73856 15.6861 7.99749 15.6861C12.2564 15.6861 15.7118 12.2307 15.7118 7.97182Z" fill="#1E0E62"/>
</svg>
