<svg width="19" height="20" viewBox="0 0 19 20" fill="none" xmlns="http://www.w3.org/2000/svg">
<path d="M12.6398 17.358C11.6699 17.7632 10.6141 17.9964 9.49693 17.9964C7.54492 17.9964 5.76479 17.2966 4.36523 16.1549C4.36523 16.1549 4.47573 16.2286 4.54939 16.2899C6.09626 12.9261 10.8719 11.2565 10.8719 11.2565C10.8842 11.2565 10.9088 11.2442 10.921 11.2442C12.0505 14.1906 12.517 16.646 12.6398 17.358ZM10.3686 9.90601C10.2704 9.94284 10.1599 9.9674 10.0494 10.0042C10.0494 10.0042 5.7034 11.4038 3.50586 15.3201C2.22907 13.896 1.44336 12.0053 1.44336 9.94284C1.44336 9.85691 1.44336 9.77097 1.45564 9.68503C1.59068 9.68503 5.56836 9.78325 9.71791 8.54329C9.95117 8.99753 10.1722 9.45177 10.3686 9.90601ZM9.05497 7.30334C5.18778 8.32231 1.82394 8.28548 1.61523 8.28548C2.14314 5.79329 3.81278 3.71851 6.05943 2.66271C6.16992 2.81003 7.65541 4.82343 9.05497 7.30334ZM17.4523 11.2196C17.084 13.4663 15.8072 15.406 14.0025 16.6214C13.9166 16.1426 13.4869 13.7732 12.4311 10.8636C15.0338 10.4585 17.2804 11.1705 17.4523 11.2196ZM7.56948 2.12253C7.5572 2.12253 7.54492 2.13481 7.54492 2.13481C7.5572 2.12253 7.5572 2.12253 7.56948 2.12253ZM14.8128 3.90267C14.7882 3.9395 13.6465 5.6828 10.6141 6.81226C9.23912 4.28325 7.7168 2.28213 7.59403 2.12253C8.20787 1.97521 8.84626 1.88927 9.49693 1.88927C11.5349 1.88927 13.4009 2.65043 14.8128 3.90267ZM17.5505 9.85691C17.4523 9.84463 14.7146 9.24307 11.94 9.59909C11.8786 9.46405 11.8295 9.31673 11.7681 9.18168C11.5963 8.78883 11.4121 8.39597 11.228 8.01539C14.4076 6.71405 15.6967 4.84798 15.7213 4.82343C16.8507 6.19843 17.5259 7.95401 17.5505 9.85691ZM18.9255 9.94284C18.9255 4.73749 14.7023 0.514273 9.49693 0.514273C4.29157 0.514273 0.0683594 4.73749 0.0683594 9.94284C0.0683594 15.1482 4.29157 19.3714 9.49693 19.3714C14.7023 19.3714 18.9255 15.1482 18.9255 9.94284Z" fill="#151439" fill-opacity="0.4"/>
</svg>
