<svg width="19" height="20" viewBox="0 0 19 20" fill="none" xmlns="http://www.w3.org/2000/svg">
<path d="M15.3898 0.514273H3.60407C1.65206 0.514273 0.0683594 2.09798 0.0683594 4.04999V15.8357C0.0683594 17.7877 1.65206 19.3714 3.60407 19.3714H10.1353V12.0667H7.67997V9.21851H10.1353V7.11918C10.1353 4.68838 11.6331 3.36249 13.8061 3.36249C14.8373 3.36249 15.7335 3.43615 15.9914 3.47298V6.01427L14.4936 6.02655C13.3027 6.02655 13.0818 6.579 13.0818 7.40155V9.21851H15.8931L15.5248 12.0667H13.0818V19.3714H15.3898C17.3418 19.3714 18.9255 17.7877 18.9255 15.8357V4.04999C18.9255 2.09798 17.3418 0.514273 15.3898 0.514273Z" fill="#151439" fill-opacity="0.4"/>
</svg>
