<svg width="16" height="16" viewBox="0 0 16 16" fill="none" xmlns="http://www.w3.org/2000/svg">
<path d="M14.858 0.257533H1.137C0.6649 0.257533 0.283203 0.639229 0.283203 1.11133V14.8323C0.283203 15.3044 0.6649 15.6861 1.137 15.6861H8.51981V9.70954H6.51088V7.37918H8.51981V5.66155C8.51981 3.67271 9.74526 2.58789 11.5232 2.58789C12.3669 2.58789 13.1002 2.64816 13.3111 2.67829V4.75753L12.0857 4.76758C11.1113 4.76758 10.9305 5.21959 10.9305 5.89258V7.37918H13.2307L12.9294 9.70954H10.9305V15.6861H14.858C15.3301 15.6861 15.7118 15.3044 15.7118 14.8323V1.11133C15.7118 0.639229 15.3301 0.257533 14.858 0.257533Z" fill="#1E0E62"/>
</svg>
