<svg width="50" height="39" viewBox="0 0 50 39" fill="none" xmlns="http://www.w3.org/2000/svg">
<path d="M5.96875 15H13.5391L20.5703 30.5859L5.96875 15ZM25 33.0938L16.8203 15H33.1797L25 33.0938ZM13.6094 12H5.5L12.25 3H18.3906L13.6094 12ZM29.4297 30.5859L36.4609 15H44.0313L29.4297 30.5859ZM17.0078 12L21.7891 3H28.2109L32.9922 12H17.0078ZM36.3906 12L31.6094 3H37.75L44.5 12H36.3906ZM39.6953 0.609375C39.4141 0.210937 38.9688 -1.78814e-06 38.5 -1.78814e-06H11.5C11.0313 -1.78814e-06 10.5859 0.210937 10.3047 0.609375L1.30469 12.6094C0.859375 13.1719 0.90625 13.9922 1.39844 14.5312L23.8984 38.5313C24.1797 38.8359 24.5781 39 25 39C25.4219 39 25.8203 38.8359 26.1016 38.5313L48.6016 14.5312C49.0938 13.9922 49.1406 13.1719 48.6953 12.6094L39.6953 0.609375Z" fill="#EBEAED"/>
</svg>
