<svg width="36" height="36" viewBox="0 0 36 36" fill="none" xmlns="http://www.w3.org/2000/svg">
<path d="M24 18C24 14.6953 21.3047 12 18 12C14.6953 12 12 14.6953 12 18C12 21.3047 14.6953 24 18 24C21.3047 24 24 21.3047 24 18ZM27 18C27 22.9687 22.9688 27 18 27C13.0313 27 9 22.9687 9 18C9 13.0312 13.0313 9 18 9C22.9688 9 27 13.0312 27 18ZM30 18C30 11.3672 24.6328 6 18 6C11.3672 6 6 11.3672 6 18C6 24.6328 11.3672 30 18 30C24.6328 30 30 24.6328 30 18ZM33 18C33 26.2734 26.2734 33 18 33C9.72656 33 3 26.2734 3 18C3 9.72656 9.72656 3 18 3C26.2734 3 33 9.72656 33 18ZM36 18C36 8.0625 27.9375 -1.78814e-06 18 -1.78814e-06C8.0625 -1.78814e-06 0 8.0625 0 18C0 27.9375 8.0625 36 18 36C27.9375 36 36 27.9375 36 18Z" fill="#EBEAED"/>
</svg>
