<svg width="40" height="40" viewBox="0 0 40 40" fill="none" xmlns="http://www.w3.org/2000/svg">
<path d="M13.0547 28L27 14.0547V28H13.0547ZM12 26.9453V13H25.9453L12 26.9453ZM39 28.75C39 28.3281 38.6719 28 38.25 28H33V8.05469L38.7891 2.28906C39.0703 1.98437 39.0703 1.51562 38.7891 1.21094C38.4844 0.929685 38.0156 0.929685 37.7109 1.21094L31.9453 7H12V1.75C12 1.32812 11.6719 0.999998 11.25 0.999998H6.75C6.32813 0.999998 6 1.32812 6 1.75V7H0.75C0.328125 7 0 7.32812 0 7.75V12.25C0 12.6719 0.328125 13 0.75 13H6V33.25C6 33.6719 6.32813 34 6.75 34H27V39.25C27 39.6719 27.3281 40 27.75 40H32.25C32.6719 40 33 39.6719 33 39.25V34H38.25C38.6719 34 39 33.6719 39 33.25V28.75Z" fill="#EBEAED"/>
</svg>
