<svg width="16" height="16" viewBox="0 0 16 16" fill="none" xmlns="http://www.w3.org/2000/svg">
<path d="M3.78878 5.24972H0.474051V15.204H3.78878V5.24972ZM3.99972 2.17606C3.98968 1.20173 3.28655 0.458426 2.15151 0.458426C1.02651 0.458426 0.283203 1.20173 0.283203 2.17606C0.283203 3.1303 0.996373 3.89369 2.11133 3.89369H2.13142C3.28655 3.89369 4.00977 3.1303 3.99972 2.17606ZM15.7118 9.4986C15.7118 6.44503 14.0845 5.01869 11.9049 5.01869C10.1169 5.01869 9.33343 6.01311 8.90151 6.69615H8.9216V5.24972H5.61691C5.61691 5.24972 5.65709 6.18387 5.61691 15.204H8.9216V9.64927C8.9216 9.34793 8.95173 9.05664 9.03209 8.83566C9.27316 8.24302 9.81557 7.6303 10.7296 7.6303C11.9249 7.6303 12.4071 8.54436 12.4071 9.8803V15.204H15.7118V9.4986Z" fill="#1E0E62"/>
</svg>
