<svg width="29" height="44" viewBox="0 0 29 44" fill="none" xmlns="http://www.w3.org/2000/svg">
<path d="M21.6463 15C21.6463 18.9342 18.4376 22.1429 14.5035 22.1429C10.5693 22.1429 7.36063 18.9342 7.36063 15C7.36063 11.0658 10.5693 7.85714 14.5035 7.85714C18.4376 7.85714 21.6463 11.0658 21.6463 15ZM28.7892 15C28.7892 7.10379 22.3997 0.714284 14.5035 0.714284C6.60728 0.714284 0.217773 7.10379 0.217773 15C0.217773 16.702 0.413086 18.4598 1.13853 19.9944L11.3227 41.5904C11.8807 42.8181 13.1642 43.5714 14.5035 43.5714C15.8428 43.5714 17.1263 42.8181 17.7122 41.5904L27.8684 19.9944C28.5939 18.4598 28.7892 16.702 28.7892 15Z" fill="#FF0000"/>
</svg>
