<svg width="19" height="15" viewBox="0 0 19 15" fill="none" xmlns="http://www.w3.org/2000/svg">
<path d="M18.5 5.10303C18.1987 5.4345 17.8571 5.72579 17.4955 5.97691C15.8181 7.11196 14.1306 8.25704 12.4933 9.44231C11.6496 10.0651 10.6049 10.8285 9.51005 10.8285H9.5H9.48996C8.39509 10.8285 7.35045 10.0651 6.5067 9.44231C4.86942 8.247 3.18192 7.11196 1.51451 5.97691C1.14286 5.72579 0.801339 5.4345 0.5 5.10303V13.0785C0.5 13.9624 1.22321 14.6856 2.10714 14.6856H16.8929C17.7768 14.6856 18.5 13.9624 18.5 13.0785V5.10303ZM18.5 2.1499C18.5 1.26597 17.7667 0.542759 16.8929 0.542759H2.10714C1.03237 0.542759 0.5 1.38651 0.5 2.37088C0.5 3.28495 1.51451 4.41999 2.22768 4.90213C3.7846 5.98696 5.36161 7.07178 6.91853 8.16664C7.57143 8.61865 8.67634 9.54276 9.48996 9.54276H9.5H9.51005C10.3237 9.54276 11.4286 8.61865 12.0815 8.16664C13.6384 7.07178 15.2154 5.98696 16.7824 4.90213C17.6663 4.28941 18.5 3.2749 18.5 2.1499Z" fill="#25DAC5"/>
</svg>
