<svg width="15" height="15" viewBox="0 0 15 15" fill="none" xmlns="http://www.w3.org/2000/svg">
<path d="M14.5677 11.4267C14.5677 11.3564 14.5677 11.2861 14.5375 11.2158C14.4672 11.0048 13.975 10.7838 13.7741 10.6834C13.2016 10.362 12.619 10.0506 12.0565 9.7191C11.7953 9.55838 11.4739 9.25704 11.1625 9.25704C10.5498 9.25704 9.65583 11.0751 9.11342 11.0751C8.84222 11.0751 8.49065 10.824 8.24958 10.6834C6.42146 9.66888 5.15583 8.40325 4.14132 6.57513C4.0007 6.33405 3.74958 5.98249 3.74958 5.71129C3.74958 5.16888 5.56766 4.2749 5.56766 3.66218C5.56766 3.35079 5.26632 3.02937 5.10561 2.76821C4.77414 2.20571 4.46275 1.62312 4.14132 1.05057C4.04088 0.849679 3.81989 0.357491 3.60896 0.287179C3.53864 0.257044 3.46833 0.257044 3.39802 0.257044C3.03641 0.257044 2.33329 0.417759 2.00181 0.568429C1.50963 0.779366 1.1882 1.34187 0.937081 1.79388C0.615653 2.38651 0.424805 2.98919 0.424805 3.66218C0.424805 4.59633 0.806501 5.44008 1.11789 6.29388C1.33887 6.9066 1.61007 7.49923 1.95159 8.05169C3.00628 9.75928 5.06543 11.8184 6.77302 12.8731C7.32547 13.2146 7.91811 13.4858 8.53083 13.7068C9.38463 14.0182 10.2284 14.3999 11.1625 14.3999C11.8355 14.3999 12.4382 14.2091 13.0308 13.8876C13.4828 13.6365 14.0453 13.3151 14.2563 12.8229C14.4069 12.4914 14.5677 11.7883 14.5677 11.4267Z" fill="#25DAC5"/>
</svg>
