<svg width="16" height="16" viewBox="0 0 16 16" fill="none" xmlns="http://www.w3.org/2000/svg">
<path d="M15.7118 7.97182C15.7118 3.71289 12.2564 0.257533 7.99749 0.257533C3.73856 0.257533 0.283203 3.71289 0.283203 7.97182C0.283203 11.1359 2.18164 13.8479 4.90374 15.0432C4.88365 14.5008 4.89369 13.8479 5.03432 13.2653C5.03432 13.2653 5.18499 12.6426 6.02874 9.06668C5.77762 8.5745 5.77762 7.84124 5.77762 7.84124C5.77762 6.69615 6.44057 5.84235 7.26423 5.84235C7.96736 5.84235 8.30887 6.37472 8.30887 7.00753C8.30887 7.71066 7.85686 8.76535 7.62584 9.73968C7.43499 10.5633 8.03767 11.2263 8.84124 11.2263C10.3078 11.2263 11.2921 9.34793 11.2921 7.12807C11.2921 5.43052 10.147 4.1649 8.07785 4.1649C5.73744 4.1649 4.28097 5.91267 4.28097 7.86133C4.28097 8.53432 4.48186 9.00642 4.79325 9.37807C4.93387 9.54883 4.95396 9.6091 4.90374 9.80999C4.86356 9.95061 4.7832 10.2921 4.74302 10.4227C4.6928 10.6236 4.53209 10.6939 4.36133 10.6236C3.28655 10.1816 2.78432 8.99637 2.78432 7.67048C2.78432 5.48075 4.63253 2.84905 8.28878 2.84905C11.2419 2.84905 13.1805 4.98856 13.1805 7.26869C13.1805 10.3022 11.493 12.5622 9.012 12.5622C8.17829 12.5622 7.39481 12.1102 7.13365 11.5979C6.68164 13.3758 6.59124 13.7174 6.59124 13.7174C6.43052 14.31 6.09905 14.9026 5.80776 15.3647C6.51088 15.5756 7.2341 15.6861 7.99749 15.6861C12.2564 15.6861 15.7118 12.2307 15.7118 7.97182Z" fill="#1E0E62"/>
</svg>
