<svg width="16" height="14" viewBox="0 0 16 14" fill="none" xmlns="http://www.w3.org/2000/svg">
<path d="M15.9139 2.07003C15.3313 2.32115 14.6985 2.50195 14.0456 2.57227C14.7186 2.17048 15.2309 1.53767 15.472 0.784319C14.8492 1.15597 14.1461 1.42718 13.4128 1.5678C12.8202 0.934988 11.9764 0.543247 11.0423 0.543247C9.24428 0.543247 7.79785 1.99972 7.79785 3.78767C7.79785 4.03878 7.82799 4.2899 7.87821 4.53097C5.18624 4.39035 2.78557 3.10463 1.18848 1.13588C0.907227 1.61802 0.746512 2.17048 0.746512 2.77316C0.746512 3.89816 1.31906 4.89258 2.19294 5.47517C1.66057 5.45508 1.15834 5.30441 0.726423 5.06334C0.726423 5.07338 0.726423 5.09347 0.726423 5.10352C0.726423 6.68052 1.84138 7.98633 3.32799 8.28767C3.05678 8.35798 2.76549 8.39816 2.47419 8.39816C2.26325 8.39816 2.06236 8.37807 1.86147 8.34793C2.2733 9.63365 3.46861 10.5678 4.89495 10.5979C3.77999 11.4718 2.38379 11.9841 0.867048 11.9841C0.595843 11.9841 0.344727 11.9741 0.0835659 11.9439C1.51995 12.868 3.22754 13.4004 5.06571 13.4004C11.0322 13.4004 14.2967 8.45843 14.2967 4.16936C14.2967 4.02874 14.2967 3.88811 14.2867 3.74749C14.9195 3.28543 15.472 2.71289 15.9139 2.07003Z" fill="#1E0E62"/>
</svg>
