<svg width="21" height="16" viewBox="0 0 21 16" fill="none" xmlns="http://www.w3.org/2000/svg">
<path d="M20.1726 1.95177C19.4605 2.25869 18.6871 2.47968 17.8891 2.56561C18.7116 2.07454 19.3378 1.3011 19.6324 0.380345C18.8712 0.834585 18.0119 1.16606 17.1157 1.33793C16.3913 0.564496 15.3601 0.0857017 14.2183 0.0857017C12.0208 0.0857017 10.2529 1.86584 10.2529 4.0511C10.2529 4.35802 10.2898 4.66494 10.3511 4.95959C7.06097 4.78771 4.12681 3.21628 2.1748 0.810032C1.83105 1.39932 1.63463 2.07454 1.63463 2.81115C1.63463 4.18615 2.3344 5.40155 3.40248 6.1136C2.75181 6.08905 2.13797 5.9049 1.61007 5.61026C1.61007 5.62253 1.61007 5.64709 1.61007 5.65936C1.61007 7.58682 2.9728 9.1828 4.78976 9.5511C4.45829 9.63704 4.10226 9.68615 3.74623 9.68615C3.48842 9.68615 3.24289 9.66159 2.99735 9.62476C3.5007 11.1962 4.96164 12.3379 6.70494 12.3748C5.34222 13.4428 3.63574 14.069 1.78195 14.069C1.45047 14.069 1.14355 14.0567 0.824358 14.0199C2.57994 15.1493 4.66699 15.8 6.91364 15.8C14.2061 15.8 18.196 9.75981 18.196 4.51762C18.196 4.34575 18.196 4.17387 18.1837 4.002C18.9572 3.43726 19.6324 2.73749 20.1726 1.95177Z" fill="#151439" fill-opacity="0.4"/>
</svg>
